<mxfile host="Electron" modified="2023-11-21T12:02:24.243Z" agent="Mozilla/5.0 (Windows NT 10.0; Win64; x64) AppleWebKit/537.36 (KHTML, like Gecko) draw.io/22.0.3 Chrome/114.0.5735.289 Electron/25.8.4 Safari/537.36" etag="5Q-Zy0w6AxujcxOFfmxG" version="22.0.3" type="device">
  <diagram name="Page-1" id="ABfplQ1jFQap1IfK6T3H">
    <mxGraphModel dx="2798" dy="828" grid="1" gridSize="10" guides="1" tooltips="1" connect="1" arrows="1" fold="1" page="1" pageScale="1" pageWidth="850" pageHeight="1100" math="0" shadow="0">
      <root>
        <mxCell id="0" />
        <mxCell id="1" parent="0" />
        <mxCell id="7dGdsK21zcAKUkK9l5K6-1" value="Zaposleni" style="rounded=0;whiteSpace=wrap;html=1;fontSize=14;" vertex="1" parent="1">
          <mxGeometry x="-460" y="925" width="120" height="60" as="geometry" />
        </mxCell>
        <mxCell id="7dGdsK21zcAKUkK9l5K6-3" value="ime" style="ellipse;whiteSpace=wrap;html=1;align=center;" vertex="1" parent="1">
          <mxGeometry x="-585" y="809" width="100" height="40" as="geometry" />
        </mxCell>
        <mxCell id="7dGdsK21zcAKUkK9l5K6-4" value="" style="endArrow=none;html=1;rounded=0;entryX=0.158;entryY=0.017;entryDx=0;entryDy=0;exitX=1;exitY=1;exitDx=0;exitDy=0;entryPerimeter=0;" edge="1" parent="1" source="7dGdsK21zcAKUkK9l5K6-3" target="7dGdsK21zcAKUkK9l5K6-1">
          <mxGeometry width="50" height="50" relative="1" as="geometry">
            <mxPoint x="-425" y="1039" as="sourcePoint" />
            <mxPoint x="-442" y="902" as="targetPoint" />
          </mxGeometry>
        </mxCell>
        <mxCell id="7dGdsK21zcAKUkK9l5K6-5" value="jmbg#" style="ellipse;whiteSpace=wrap;html=1;align=center;" vertex="1" parent="1">
          <mxGeometry x="-365" y="809" width="100" height="40" as="geometry" />
        </mxCell>
        <mxCell id="7dGdsK21zcAKUkK9l5K6-6" value="" style="endArrow=none;html=1;rounded=0;entryX=0.842;entryY=0.033;entryDx=0;entryDy=0;exitX=0;exitY=1;exitDx=0;exitDy=0;entryPerimeter=0;" edge="1" parent="1" source="7dGdsK21zcAKUkK9l5K6-5" target="7dGdsK21zcAKUkK9l5K6-1">
          <mxGeometry width="50" height="50" relative="1" as="geometry">
            <mxPoint x="-465" y="969" as="sourcePoint" />
            <mxPoint x="-365" y="901" as="targetPoint" />
          </mxGeometry>
        </mxCell>
        <mxCell id="7dGdsK21zcAKUkK9l5K6-7" value="prezime" style="ellipse;whiteSpace=wrap;html=1;align=center;" vertex="1" parent="1">
          <mxGeometry x="-465" y="789" width="100" height="40" as="geometry" />
        </mxCell>
        <mxCell id="7dGdsK21zcAKUkK9l5K6-8" value="" style="endArrow=none;html=1;rounded=0;entryX=0.558;entryY=0.05;entryDx=0;entryDy=0;exitX=0.65;exitY=1.1;exitDx=0;exitDy=0;exitPerimeter=0;entryPerimeter=0;" edge="1" parent="1" source="7dGdsK21zcAKUkK9l5K6-7" target="7dGdsK21zcAKUkK9l5K6-1">
          <mxGeometry width="50" height="50" relative="1" as="geometry">
            <mxPoint x="-305" y="1029" as="sourcePoint" />
            <mxPoint x="-388" y="898" as="targetPoint" />
          </mxGeometry>
        </mxCell>
        <mxCell id="7dGdsK21zcAKUkK9l5K6-9" value="naziv zanimanja" style="ellipse;whiteSpace=wrap;html=1;align=center;" vertex="1" parent="1">
          <mxGeometry x="-639" y="991" width="130" height="60" as="geometry" />
        </mxCell>
        <mxCell id="7dGdsK21zcAKUkK9l5K6-10" value="" style="endArrow=none;html=1;rounded=0;entryX=0;entryY=0.883;entryDx=0;entryDy=0;exitX=1;exitY=0;exitDx=0;exitDy=0;entryPerimeter=0;" edge="1" parent="1" source="7dGdsK21zcAKUkK9l5K6-9" target="7dGdsK21zcAKUkK9l5K6-1">
          <mxGeometry width="50" height="50" relative="1" as="geometry">
            <mxPoint x="-519" y="1011" as="sourcePoint" />
            <mxPoint x="-459" y="959" as="targetPoint" />
          </mxGeometry>
        </mxCell>
        <mxCell id="7dGdsK21zcAKUkK9l5K6-11" value="godina rodjenja" style="ellipse;whiteSpace=wrap;html=1;align=center;" vertex="1" parent="1">
          <mxGeometry x="-649" y="931" width="100" height="40" as="geometry" />
        </mxCell>
        <mxCell id="7dGdsK21zcAKUkK9l5K6-12" value="" style="endArrow=none;html=1;rounded=0;entryX=0;entryY=0.5;entryDx=0;entryDy=0;exitX=1;exitY=0.5;exitDx=0;exitDy=0;" edge="1" parent="1" source="7dGdsK21zcAKUkK9l5K6-11" target="7dGdsK21zcAKUkK9l5K6-1">
          <mxGeometry width="50" height="50" relative="1" as="geometry">
            <mxPoint x="-559" y="951" as="sourcePoint" />
            <mxPoint x="-459" y="941" as="targetPoint" />
          </mxGeometry>
        </mxCell>
        <mxCell id="7dGdsK21zcAKUkK9l5K6-13" style="rounded=0;orthogonalLoop=1;jettySize=auto;html=1;entryX=0.75;entryY=1;entryDx=0;entryDy=0;endArrow=none;endFill=0;" edge="1" parent="1" source="7dGdsK21zcAKUkK9l5K6-14" target="7dGdsK21zcAKUkK9l5K6-1">
          <mxGeometry relative="1" as="geometry" />
        </mxCell>
        <mxCell id="7dGdsK21zcAKUkK9l5K6-14" value="broj zdravstvenog kartona" style="ellipse;whiteSpace=wrap;html=1;align=center;" vertex="1" parent="1">
          <mxGeometry x="-365" y="1023" width="130" height="60" as="geometry" />
        </mxCell>
        <mxCell id="7dGdsK21zcAKUkK9l5K6-15" value="" style="rounded=0;orthogonalLoop=1;jettySize=auto;html=1;exitX=1;exitY=0.5;exitDx=0;exitDy=0;entryX=0;entryY=0.5;entryDx=0;entryDy=0;endArrow=none;endFill=0;" edge="1" parent="1" source="7dGdsK21zcAKUkK9l5K6-20" target="7dGdsK21zcAKUkK9l5K6-16">
          <mxGeometry relative="1" as="geometry">
            <mxPoint x="-770" y="1159" as="sourcePoint" />
          </mxGeometry>
        </mxCell>
        <mxCell id="7dGdsK21zcAKUkK9l5K6-16" value="Radi" style="rhombus;whiteSpace=wrap;html=1;" vertex="1" parent="1">
          <mxGeometry x="-550" y="1100" width="100" height="69" as="geometry" />
        </mxCell>
        <mxCell id="7dGdsK21zcAKUkK9l5K6-17" style="edgeStyle=orthogonalEdgeStyle;rounded=0;orthogonalLoop=1;jettySize=auto;html=1;exitX=1;exitY=0.5;exitDx=0;exitDy=0;entryX=0.5;entryY=1;entryDx=0;entryDy=0;endArrow=none;endFill=0;" edge="1" parent="1" source="7dGdsK21zcAKUkK9l5K6-16" target="7dGdsK21zcAKUkK9l5K6-1">
          <mxGeometry relative="1" as="geometry">
            <mxPoint x="-408.9699999999998" y="991" as="targetPoint" />
          </mxGeometry>
        </mxCell>
        <mxCell id="7dGdsK21zcAKUkK9l5K6-18" value="(0,M) Zaposljava" style="edgeLabel;html=1;align=center;verticalAlign=middle;resizable=0;points=[];fontSize=12;" vertex="1" connectable="0" parent="1">
          <mxGeometry x="-648.9952941176468" y="1169" as="geometry">
            <mxPoint x="-15" y="-6" as="offset" />
          </mxGeometry>
        </mxCell>
        <mxCell id="7dGdsK21zcAKUkK9l5K6-19" value="(0,1) Zaposljen" style="edgeLabel;html=1;align=center;verticalAlign=middle;resizable=0;points=[];fontSize=12;" vertex="1" connectable="0" parent="1">
          <mxGeometry x="-399.99529411764684" y="1021" as="geometry">
            <mxPoint x="-17" y="-3" as="offset" />
          </mxGeometry>
        </mxCell>
        <mxCell id="7dGdsK21zcAKUkK9l5K6-20" value="Radno mesto" style="rounded=0;whiteSpace=wrap;html=1;fontSize=14;" vertex="1" parent="1">
          <mxGeometry x="-880" y="1120" width="120" height="60" as="geometry" />
        </mxCell>
        <mxCell id="7dGdsK21zcAKUkK9l5K6-21" value="id#" style="ellipse;whiteSpace=wrap;html=1;align=center;" vertex="1" parent="1">
          <mxGeometry x="-880" y="1039" width="60" height="31.5" as="geometry" />
        </mxCell>
        <mxCell id="7dGdsK21zcAKUkK9l5K6-22" value="" style="endArrow=none;html=1;rounded=0;entryX=0.25;entryY=0;entryDx=0;entryDy=0;exitX=0.28;exitY=0.95;exitDx=0;exitDy=0;exitPerimeter=0;" edge="1" parent="1" source="7dGdsK21zcAKUkK9l5K6-21" target="7dGdsK21zcAKUkK9l5K6-20">
          <mxGeometry width="50" height="50" relative="1" as="geometry">
            <mxPoint x="-830" y="1269.5" as="sourcePoint" />
            <mxPoint x="-880" y="1109.5" as="targetPoint" />
          </mxGeometry>
        </mxCell>
        <mxCell id="7dGdsK21zcAKUkK9l5K6-23" value="opis poslova" style="ellipse;whiteSpace=wrap;html=1;" vertex="1" parent="1">
          <mxGeometry x="-877.5" y="1209" width="75" height="39" as="geometry" />
        </mxCell>
        <mxCell id="7dGdsK21zcAKUkK9l5K6-24" style="rounded=0;orthogonalLoop=1;jettySize=auto;html=1;exitX=0.5;exitY=0;exitDx=0;exitDy=0;entryX=0.5;entryY=1;entryDx=0;entryDy=0;endArrow=none;endFill=0;" edge="1" parent="1" source="7dGdsK21zcAKUkK9l5K6-23" target="7dGdsK21zcAKUkK9l5K6-20">
          <mxGeometry relative="1" as="geometry">
            <mxPoint x="-770" y="1185" as="targetPoint" />
          </mxGeometry>
        </mxCell>
        <mxCell id="7dGdsK21zcAKUkK9l5K6-25" style="rounded=0;orthogonalLoop=1;jettySize=auto;html=1;exitX=0;exitY=1;exitDx=0;exitDy=0;entryX=0.75;entryY=0;entryDx=0;entryDy=0;endArrow=none;endFill=0;" edge="1" parent="1" source="7dGdsK21zcAKUkK9l5K6-26" target="7dGdsK21zcAKUkK9l5K6-20">
          <mxGeometry relative="1" as="geometry" />
        </mxCell>
        <mxCell id="7dGdsK21zcAKUkK9l5K6-26" value="naziv rm" style="ellipse;whiteSpace=wrap;html=1;" vertex="1" parent="1">
          <mxGeometry x="-780" y="1059" width="70" height="31" as="geometry" />
        </mxCell>
      </root>
    </mxGraphModel>
  </diagram>
</mxfile>
